# xmcd CD database file generated by Grip 3.2.0
# 
# Track frame offsets:
#       150
#       9650
#       23920
#       36192
#       54642
#       67155
#       80517
#       93390
#       112300
#       123527
#       140662
#       152970
#       168605
#       179715
#       193572
#       207105
#       217350
#       236780
#       244135
# 
# Disc length: 3329 seconds
# 
# Revision: 2
# Processed by: cddbd v1.5.1PL0 Copyright (c) Steve Scherf et al.
# Submitted via: Grip 3.2.0
# 
DISCID=2d0cff13
DTITLE=Micheal Jerome Browne and The Twin Rivers String Band - Micheal Jerome
DTITLE=Browne and The Twin Rivers String Band
DYEAR=2004
DGENRE=Bluegrass
TTITLE0=Browne's Hoedown
TTITLE1=The Coo Coo
TTITLE2=You Done Me Wrong
TTITLE3=Still On My Mind
TTITLE4=La Contredanse A Ti-Browne
TTITLE5=Out On The Western Plains
TTITLE6=Shreveport Jail
TTITLE7=Arlington Town
TTITLE8=Eighth Of January
TTITLE9=Many Thousand Go
TTITLE10=Two Step De La Ville Platte
TTITLE11=Just Look Up
TTITLE12=Redemption Ground
TTITLE13=Pay Day
TTITLE14=Le Hack A Ti-Moreau
TTITLE15=May You Come And Stay
TTITLE16=Belle
TTITLE17=Rambling Hobo
TTITLE18=Whole Heap Of Little Horses
EXTD=
EXTT0=
EXTT1=
EXTT2=
EXTT3=
EXTT4=
EXTT5=
EXTT6=
EXTT7=
EXTT8=
EXTT9=
EXTT10=
EXTT11=
EXTT12=
EXTT13=
EXTT14=
EXTT15=
EXTT16=
EXTT17=
EXTT18=
PLAYORDER=
